<svg version="1.1" xmlns="http://www.w3.org/2000/svg" viewBox="0 0 3579.661964758081 960.1768300952754" width="7159.323929516162" height="1920.3536601905507">
  <!-- svg-source:excalidraw -->
  
  <defs>
    <style>
      @font-face {
        font-family: "Virgil";
        src: url("https://excalidraw.com/Virgil.woff2");
      }
      @font-face {
        font-family: "Cascadia";
        src: url("https://excalidraw.com/Cascadia.woff2");
      }
    </style>
  </defs>
  <g transform="translate(1299.296157675588 10) rotate(0 198.2999410560151 104.0551306741163)"><path d="M0 0 L396.5998821120311 0 L396.5998821120311 208.11026134823288 L0 208.11026134823288" stroke="none" stroke-width="0" fill="#868e96"></path><path d="M0 0 C97.0134208493713 0, 194.0268416987426 0, 396.5998821120311 0 M0 0 C107.19086187126979 0, 214.38172374253958 0, 396.5998821120311 0 M396.5998821120311 0 C396.5998821120311 80.8192553941836, 396.5998821120311 161.6385107883672, 396.5998821120311 208.11026134823288 M396.5998821120311 0 C396.5998821120311 58.81327803843167, 396.5998821120311 117.62655607686334, 396.5998821120311 208.11026134823288 M396.5998821120311 208.11026134823288 C304.0855437900116 208.11026134823288, 211.5712054679922 208.11026134823288, 0 208.11026134823288 M396.5998821120311 208.11026134823288 C303.1045533912423 208.11026134823288, 209.60922467045347 208.11026134823288, 0 208.11026134823288 M0 208.11026134823288 C0 133.49634808464887, 0 58.88243482106486, 0 0 M0 208.11026134823288 C0 136.8897499354898, 0 65.6692385227467, 0 0" stroke="#000000" stroke-width="4" fill="none"></path></g><g transform="translate(1438.0839663835468 87.22501217645913) rotate(0 46.09492954781672 31.461618580256072)"><text x="0" y="50.92323716051221" font-family="Cascadia, Segoe UI Emoji" font-size="52.6799194832195px" fill="#fff" text-anchor="start" style="white-space: pre;" direction="ltr">xml</text></g><g transform="translate(1289.221466042658 355.26897098361223) rotate(0 198.2999410560151 104.0551306741163)"><path d="M0 0 L396.5998821120311 0 L396.5998821120311 208.11026134823288 L0 208.11026134823288" stroke="none" stroke-width="0" fill="#fa5252"></path><path d="M0 0 C151.80433541227163 0, 303.60867082454325 0, 396.5998821120311 0 M0 0 C108.66747237304713 0, 217.33494474609427 0, 396.5998821120311 0 M396.5998821120311 0 C396.5998821120311 62.449535743888404, 396.5998821120311 124.89907148777681, 396.5998821120311 208.11026134823288 M396.5998821120311 0 C396.5998821120311 78.74695649614779, 396.5998821120311 157.49391299229558, 396.5998821120311 208.11026134823288 M396.5998821120311 208.11026134823288 C257.8893110443196 208.11026134823288, 119.17873997660803 208.11026134823288, 0 208.11026134823288 M396.5998821120311 208.11026134823288 C306.3057046368335 208.11026134823288, 216.01152716163594 208.11026134823288, 0 208.11026134823288 M0 208.11026134823288 C0 164.90415846065372, 0 121.69805557307456, 0 0 M0 208.11026134823288 C0 160.59322337350446, 0 113.07618539877605, 0 0" stroke="#000000" stroke-width="4" fill="none"></path></g><g transform="translate(1428.0092747506133 432.49398316008956) rotate(0 61.459906063755625 31.461618580256072)"><text x="0" y="50.92323716051221" font-family="Cascadia, Segoe UI Emoji" font-size="52.6799194832195px" fill="#fff" text-anchor="start" style="white-space: pre;" direction="ltr">JSON</text></g><g transform="translate(1288.5346527160873 742.0022622047) rotate(0 198.2999410560151 104.0551306741163)"><path d="M0 0 L396.5998821120311 0 L396.5998821120311 208.11026134823288 L0 208.11026134823288" stroke="none" stroke-width="0" fill="#15aabf"></path><path d="M0 0 C154.64373369146196 0, 309.2874673829239 0, 396.5998821120311 0 M0 0 C96.47088639978521 0, 192.94177279957043 0, 396.5998821120311 0 M396.5998821120311 0 C396.5998821120311 73.27817071083315, 396.5998821120311 146.5563414216663, 396.5998821120311 208.11026134823288 M396.5998821120311 0 C396.5998821120311 45.74111135524791, 396.5998821120311 91.48222271049582, 396.5998821120311 208.11026134823288 M396.5998821120311 208.11026134823288 C274.404853606177 208.11026134823288, 152.20982510032294 208.11026134823288, 0 208.11026134823288 M396.5998821120311 208.11026134823288 C308.1037680052202 208.11026134823288, 219.6076538984093 208.11026134823288, 0 208.11026134823288 M0 208.11026134823288 C0 160.6040556944205, 0 113.09785004060814, 0 0 M0 208.11026134823288 C0 145.10806930990725, 0 82.10587727158163, 0 0" stroke="#000000" stroke-width="4" fill="none"></path></g><g transform="translate(1372.9477072916088 819.2272743811664) rotate(0 123.65147767589042 31.461618580256072)"><text x="0" y="50.92323716051221" font-family="Cascadia, Segoe UI Emoji" font-size="52.67991948321951px" fill="#fff" text-anchor="start" style="white-space: pre;" direction="ltr">protobuf</text></g><g transform="translate(10 47.39068178382149) rotate(0 320.6395652682122 75.11004145068364)"><path d="M0 0 L641.2791305364243 0 L641.2791305364243 150.2200829013681 L0 150.2200829013681" stroke="none" stroke-width="0" fill="#868e96"></path><path d="M0 0 C165.94287011462805 0, 331.8857402292561 0, 641.2791305364243 0 M0 0 C181.45898285460464 0, 362.9179657092093 0, 641.2791305364243 0 M641.2791305364243 0 C641.2791305364243 43.87165709105439, 641.2791305364243 87.74331418210878, 641.2791305364243 150.2200829013681 M641.2791305364243 0 C641.2791305364243 60.03914899786524, 641.2791305364243 120.07829799573048, 641.2791305364243 150.2200829013681 M641.2791305364243 150.2200829013681 C461.3295544826571 150.2200829013681, 281.3799784288899 150.2200829013681, 0 150.2200829013681 M641.2791305364243 150.2200829013681 C420.04538381471957 150.2200829013681, 198.81163709301484 150.2200829013681, 0 150.2200829013681 M0 150.2200829013681 C0 104.28924720872247, 0 58.35841151607684, 0 0 M0 150.2200829013681 C0 92.77226994522759, 0 35.32445698908708, 0 0" stroke="#000000" stroke-width="4" fill="none"></path></g><g transform="translate(114.36237304307178 89.38999910183338) rotate(0 215.84133677152477 31.461618580256072)"><text x="0" y="50.92323716051221" font-family="Cascadia, Segoe UI Emoji" font-size="52.67991948321951px" fill="#fff" text-anchor="start" style="white-space: pre;" direction="ltr">XML Marshaller</text></g><g><g transform="translate(676.6444889030608 148.49485668174384) rotate(0 304.05562251640094 0)"><path d="M0 0 C101.35187417213375 0, 506.7593708606687 0, 608.1112450328025 0 M0 0 C101.35187417213375 0, 506.7593708606687 0, 608.1112450328025 0" stroke="#000000" stroke-width="4" fill="none"></path></g><g transform="translate(676.6444889030608 148.49485668174384) rotate(0 304.05562251640094 0)"><path d="M579.9204664092252 10.260604299770062 C587.8194413977664 7.385612522727857, 595.7184163863076 4.510620745685651, 608.1112450328025 0 M579.9204664092252 10.260604299770062 C587.150787037572 7.628982806850953, 594.3811076659186 4.997361313931845, 608.1112450328025 0" stroke="#000000" stroke-width="4" fill="none"></path></g><g transform="translate(676.6444889030608 148.49485668174384) rotate(0 304.05562251640094 0)"><path d="M579.9204664092252 -10.260604299770062 C587.8194413977664 -7.385612522727857, 595.7184163863076 -4.510620745685651, 608.1112450328025 0 M579.9204664092252 -10.260604299770062 C587.150787037572 -7.628982806850953, 594.3811076659186 -4.997361313931845, 608.1112450328025 0" stroke="#000000" stroke-width="4" fill="none"></path></g></g><g transform="translate(14.480022449535682 405.3923481503516) rotate(0 320.6395652682122 75.11004145068364)"><path d="M0 0 L641.2791305364243 0 L641.2791305364243 150.2200829013681 L0 150.2200829013681" stroke="none" stroke-width="0" fill="#fa5252"></path><path d="M0 0 C230.26085455391907 0, 460.52170910783815 0, 641.2791305364243 0 M0 0 C209.52039664047598 0, 419.04079328095196 0, 641.2791305364243 0 M641.2791305364243 0 C641.2791305364243 36.95405151257591, 641.2791305364243 73.90810302515182, 641.2791305364243 150.2200829013681 M641.2791305364243 0 C641.2791305364243 37.230993280418495, 641.2791305364243 74.46198656083699, 641.2791305364243 150.2200829013681 M641.2791305364243 150.2200829013681 C495.6674762305321 150.2200829013681, 350.0558219246399 150.2200829013681, 0 150.2200829013681 M641.2791305364243 150.2200829013681 C506.39637212588053 150.2200829013681, 371.51361371533676 150.2200829013681, 0 150.2200829013681 M0 150.2200829013681 C0 120.15290630010256, 0 90.08572969883701, 0 0 M0 150.2200829013681 C0 90.42656362179792, 0 30.633044342227763, 0 0" stroke="#000000" stroke-width="4" fill="none"></path></g><g transform="translate(118.84239549260383 447.3916654683853) rotate(0 231.20631328746367 31.461618580256072)"><text x="0" y="50.92323716051221" font-family="Cascadia, Segoe UI Emoji" font-size="52.67991948321951px" fill="#fff" text-anchor="start" style="white-space: pre;" direction="ltr">JSON Marshaller</text></g><g transform="translate(10.106300695581012 799.9567471939081) rotate(0 320.6395652682122 75.11004145068364)"><path d="M0 0 L641.2791305364243 0 L641.2791305364243 150.2200829013681 L0 150.2200829013681" stroke="none" stroke-width="0" fill="#15aabf"></path><path d="M0 0 C248.52842838091436 0, 497.0568567618287 0, 641.2791305364243 0 M0 0 C160.29831802950514 0, 320.5966360590103 0, 641.2791305364243 0 M641.2791305364243 0 C641.2791305364243 48.108712944872906, 641.2791305364243 96.21742588974581, 641.2791305364243 150.2200829013681 M641.2791305364243 0 C641.2791305364243 59.79879039027197, 641.2791305364243 119.59758078054394, 641.2791305364243 150.2200829013681 M641.2791305364243 150.2200829013681 C403.20234333462383 150.2200829013681, 165.12555613282336 150.2200829013681, 0 150.2200829013681 M641.2791305364243 150.2200829013681 C461.0379495771196 150.2200829013681, 280.7967686178149 150.2200829013681, 0 150.2200829013681 M0 150.2200829013681 C0 116.19138142870119, 0 82.16267995603428, 0 0 M0 150.2200829013681 C0 94.21484292372925, 0 38.2096029460904, 0 0" stroke="#000000" stroke-width="4" fill="none"></path></g><g transform="translate(35.12869083639271 845.2714240280293) rotate(0 293.39788489959756 31.461618580256072)"><text x="0" y="50.92323716051221" font-family="Cascadia, Segoe UI Emoji" font-size="52.67991948321951px" fill="#fff" text-anchor="start" style="white-space: pre;" direction="ltr">protobuf Marshaller</text></g><g><g transform="translate(682.3892066852168 484.8037827663102) rotate(0 292.9591713774262 -7.595317167244502)"><path d="M0 0 C97.65305712580857 -2.531772389081594, 488.26528562904286 -12.658861945407972, 585.9183427548514 -15.190634334489566 M0 0 C97.65305712580857 -2.531772389081594, 488.26528562904286 -12.658861945407972, 585.9183427548514 -15.190634334489566" stroke="#000000" stroke-width="4" fill="none"></path></g><g transform="translate(682.3892066852168 484.8037827663102) rotate(0 292.9591713774262 -7.595317167244502)"><path d="M558.0029629110131 -4.202842555691117 C567.5217007583682 -7.949519478906664, 577.0404386057232 -11.696196402122212, 585.9183427548514 -15.190634334489566 M558.0029629110131 -4.202842555691117 C563.8225804658583 -6.493506207147499, 569.6421980207034 -8.784169858603882, 585.9183427548514 -15.190634334489566" stroke="#000000" stroke-width="4" fill="none"></path></g><g transform="translate(682.3892066852168 484.8037827663102) rotate(0 292.9591713774262 -7.595317167244502)"><path d="M557.4711047346964 -24.71715778350521 C567.1711984719104 -21.46875207256246, 576.8712922091245 -18.220346361619708, 585.9183427548514 -15.190634334489566 M557.4711047346964 -24.71715778350521 C563.4016006367787 -22.73112988738928, 569.3320965388609 -20.745101991273348, 585.9183427548514 -15.190634334489566" stroke="#000000" stroke-width="4" fill="none"></path></g></g><g><g transform="translate(676.6007409998383 882.8978964670769) rotate(0 293.8951888270103 -9.260142096659365)"><path d="M0 0 C97.96506294233689 -3.086714032219893, 489.8253147116844 -15.433570161099466, 587.7903776540213 -18.52028419331936 M0 0 C97.96506294233689 -3.086714032219893, 489.8253147116844 -15.433570161099466, 587.7903776540213 -18.52028419331936" stroke="#000000" stroke-width="4" fill="none"></path></g><g transform="translate(676.6007409998383 882.8978964670769) rotate(0 293.8951888270103 -9.260142096659365)"><path d="M559.9367161438165 -7.376965994733446 C566.5438539743437 -10.020260816152359, 573.150991804871 -12.663555637571271, 587.7903776540213 -18.52028419331936 M559.9367161438165 -7.376965994733446 C568.4023581501463 -10.763786165477793, 576.8680001564759 -14.15060633622214, 587.7903776540213 -18.52028419331936" stroke="#000000" stroke-width="4" fill="none"></path></g><g transform="translate(676.6007409998383 882.8978964670769) rotate(0 293.8951888270103 -9.260142096659365)"><path d="M559.2904481647664 -27.887995712548573 C566.0508865447197 -25.665890689067584, 572.8113249246729 -23.443785665586596, 587.7903776540213 -18.52028419331936 M559.2904481647664 -27.887995712548573 C567.9525122231408 -25.040840694479915, 576.6145762815152 -22.19368567641126, 587.7903776540213 -18.52028419331936" stroke="#000000" stroke-width="4" fill="none"></path></g></g><g transform="translate(2139.769386633081 381.7529296875) rotate(0 250.42046586350534 126.58583887135501)"><path d="M0 0 C0 0, 0 0, 0 0 M0 0 C0 0, 0 0, 0 0 M0.26629076173522215 24.081716907858013 C5.535159276620805 18.02057702653216, 10.804027791506387 11.959437145206305, 21.260179689431453 -0.06898965927069156 M0.26629076173522215 24.081716907858013 C5.22524940448938 18.377087552518056, 10.184208047243537 12.672458197178095, 21.260179689431453 -0.06898965927069156 M-0.12347750552006431 48.9181433959388 C10.721970910958357 36.4418821754769, 21.567419327436777 23.965620955014995, 42.520359378862906 -0.13797931854138312 M-0.12347750552006431 48.9181433959388 C8.972301505347428 38.454646582772874, 18.06808051621492 27.991149769606945, 42.520359378862906 -0.13797931854138312 M0.14281325621515606 72.99986030379681 C25.573672627904784 43.74500311412472, 51.00453199959441 14.490145924452634, 63.78053906829436 -0.20696897781207468 M0.14281325621515606 72.99986030379681 C22.099358759251032 47.7417440253938, 44.05590426228691 22.4836277469908, 63.78053906829436 -0.20696897781207468 M-0.24695501104012862 97.8362867918776 C25.52183782389155 68.19268162234908, 51.290630658823225 38.54907645282056, 85.04071875772581 -0.27595863708276624 M-0.24695501104012862 97.8362867918776 C24.672168947041396 69.17011385487646, 49.59129290512292 40.50394091787531, 85.04071875772581 -0.27595863708276624 M0.019335750695091747 121.9180036997356 C32.07290543070096 85.0445898011996, 64.12647511070683 48.171175902663606, 106.30089844715727 -0.3449482963534578 M0.019335750695091747 121.9180036997356 C33.28569103842823 83.64943955333783, 66.55204632616137 45.380875406940035, 106.30089844715727 -0.3449482963534578 M0.2856265124303121 145.99972060759362 C34.26276789935535 106.91349058839361, 68.2399092862804 67.82726056919361, 126.9050191075982 0.34077162459862365 M0.2856265124303121 145.99972060759362 C45.483084038183385 94.00599338325382, 90.68054156393646 42.01226615891403, 126.9050191075982 0.34077162459862365 M-0.10414175482497967 170.8361470956744 C30.98352412467347 135.07387841365684, 62.07119000417192 99.31160973163928, 148.16519879702966 0.2717819653279321 M-0.10414175482497967 170.8361470956744 C53.04365941358029 109.69659571827711, 106.19146058198557 48.55704434087983, 148.16519879702966 0.2717819653279321 M0.1621490069102549 194.91786400353243 C46.883044981277095 141.17162131756155, 93.60394095564394 87.42537863159068, 169.4253784864611 0.20279230605723342 M0.1621490069102549 194.91786400353243 C56.12536286827151 130.53955081086954, 112.08857672963276 66.16123761820666, 169.4253784864611 0.20279230605723342 M-0.22761926034503688 219.75429049161318 C69.8880929923947 139.0953902662623, 140.00380524513446 58.43649004091148, 190.6855581758926 0.13380264678653475 M-0.22761926034503688 219.75429049161318 C49.231585786374964 162.85798355960057, 98.69079083309497 105.96167662758796, 190.6855581758926 0.13380264678653475 M0.038671501390183494 243.8360073994712 C71.85682119628146 161.21867692539908, 143.67497089117273 78.60134645132695, 211.94573786532402 0.0648129875158503 M0.038671501390183494 243.8360073994712 C83.86264460869987 147.4075569690786, 167.68661771600955 50.97910653868601, 211.94573786532402 0.0648129875158503 M7.521611582020995 259.61591892487877 C54.55610455611763 205.50892415781945, 101.59059753021427 151.40192939076013, 233.2059175547555 -0.00417667175483416 M7.521611582020995 259.61591892487877 C86.9396578744801 168.25590750681818, 166.35770416693921 76.89589608875755, 233.2059175547555 -0.00417667175483416 M28.781791271452434 259.546929265608 C110.33315071029676 165.73282180123664, 191.88451014914108 71.91871433686524, 254.46609724418693 -0.07316633102553283 M28.781791271452434 259.546929265608 C117.59463935419106 157.3794346759065, 206.40748743692967 55.211940086205004, 254.46609724418693 -0.07316633102553283 M50.0419709608839 259.4779396063374 C130.78249830423476 166.59658776818247, 211.5230256475856 73.71523593002755, 275.7262769336184 -0.1421559902962315 M50.0419709608839 259.4779396063374 C125.28219811167794 172.92395933993146, 200.52242526247198 86.36997907352554, 275.7262769336184 -0.1421559902962315 M71.30215065031534 259.4089499470667 C147.65340007453773 171.57688475758994, 224.0046494987601 83.7448195681132, 296.98645662304983 -0.21114564956690174 M71.30215065031534 259.4089499470667 C122.22185000560847 200.83253650354544, 173.1415493609016 142.2561230600242, 296.98645662304983 -0.21114564956690174 M92.56233033974681 259.339960287796 C144.60495684057494 199.4717669324404, 196.6475833414031 139.60357357708483, 318.2466363124813 -0.2801353088376004 M92.56233033974681 259.339960287796 C151.09167640776758 192.00964967583965, 209.62102247578835 124.67933906388333, 318.2466363124813 -0.2801353088376004 M113.16645100018775 260.02568020874804 C193.60432222137484 167.49249441178233, 274.04219344256194 74.95930861481662, 339.50681600191274 -0.34912496810829907 M113.16645100018775 260.02568020874804 C170.28514671221626 194.3181371999603, 227.4038424242448 128.6105941911725, 339.50681600191274 -0.34912496810829907 M134.42663068961917 259.95669054947734 C186.97453224705305 199.50724473204573, 239.52243380448692 139.05779891461412, 360.11093666235365 0.33659495284376817 M134.42663068961917 259.95669054947734 C212.27603453560613 170.40119584406418, 290.1254383815931 80.84570113865101, 360.11093666235365 0.33659495284376817 M155.68681037905066 259.88770089020664 C243.43196134728575 158.94845132951104, 331.17711231552084 58.009201768815416, 381.3711163517852 0.2676052935730695 M155.68681037905066 259.88770089020664 C221.94813681845716 183.6627643337552, 288.2094632578637 107.43782777730377, 381.3711163517852 0.2676052935730695 M176.9469900684821 259.818711230936 C258.42094093496735 166.09365214265455, 339.89489180145256 72.36859305437312, 402.6312960412166 0.19861563430239926 M176.9469900684821 259.818711230936 C259.2692440357863 165.11779105572478, 341.5914980030906 70.41687088051356, 402.6312960412166 0.19861563430239926 M198.20716975791356 259.7497215716653 C267.1288830955075 180.46435997655436, 336.05059643310136 101.17899838144342, 423.89147573064804 0.1296259750317006 M198.20716975791356 259.7497215716653 C249.79962487001222 200.39939115973894, 301.3920799821109 141.04906074781258, 423.89147573064804 0.1296259750317006 M219.46734944734501 259.6807319123946 C265.1162094710562 207.1677255154631, 310.76506949476743 154.6547191185316, 445.1516554200795 0.060636315761001924 M219.46734944734501 259.6807319123946 C276.50553562633365 194.06580452689604, 333.54372180532226 128.45087714139748, 445.1516554200795 0.060636315761001924 M240.72752913677647 259.6117422531239 C300.00060056192774 191.42587348667553, 359.27367198707896 123.24000472022715, 466.411835109511 -0.00835334350966832 M240.72752913677647 259.6117422531239 C330.09595675039213 156.8051265234028, 419.46438436400774 53.998510793681675, 466.411835109511 -0.00835334350966832 M261.98770882620795 259.5427525938532 C337.45693905528884 172.72533442102971, 412.92616928436973 85.90791624820622, 487.6720147989424 -0.07734300278036699 M261.98770882620795 259.5427525938532 C330.18049651321576 181.09592403838957, 398.3732842002235 102.64909548292596, 487.6720147989424 -0.07734300278036699 M283.2478885156394 259.4737629345825 C351.88915112351674 180.51102299871957, 420.5304137313941 101.54828306285663, 505.6518993434213 3.6272152390627923 M283.2478885156394 259.4737629345825 C370.8199769457396 158.73359905023068, 458.3920653758398 57.99343516587882, 505.6518993434213 3.6272152390627923 M304.50806820507086 259.40477327531187 C369.9169615203278 184.1604488541508, 435.32585483558466 108.91612443298973, 505.26213107616604 28.463641727143596 M304.50806820507086 259.40477327531187 C377.9298312972118 174.9426966116473, 451.35159438935284 90.48061994798277, 505.26213107616604 28.463641727143596 M325.7682478945023 259.3357836160411 C394.4544207861635 180.32138030855396, 463.14059367782465 101.3069770010668, 505.5284218379013 52.54535863500158 M325.7682478945023 259.3357836160411 C375.96959199059273 201.5857433678677, 426.17093608668324 143.8357031196943, 505.5284218379013 52.54535863500158 M346.3723685549432 260.02150353699324 C399.64554959306764 198.73771911856952, 452.9187306311921 137.4539347001458, 505.13865357064594 77.38178512308238 M346.3723685549432 260.02150353699324 C386.93785296348324 213.3562518497923, 427.5033373720233 166.69100016259137, 505.13865357064594 77.38178512308238 M367.6325482443747 259.95251387772254 C410.66989267284276 210.4437125165237, 453.70723710131085 160.93491115532487, 505.4049443323812 101.46350203094042 M367.6325482443747 259.95251387772254 C418.50985215962726 201.42487080903416, 469.3871560748799 142.89722774034578, 505.4049443323812 101.46350203094042 M388.89272793380616 259.88352421845184 C425.47311313549733 217.80260475845142, 462.05349833718844 175.72168529845098, 505.67123509411647 125.5452189387984 M388.89272793380616 259.88352421845184 C428.93831197595284 213.81634948765245, 468.9838960180996 167.74917475685305, 505.67123509411647 125.5452189387984 M410.15290762323764 259.81453455918114 C431.0285982825309 235.79979954581148, 451.9042889418241 211.78506453244182, 505.2814668268612 150.3816454268792 M410.15290762323764 259.81453455918114 C432.9766785645694 233.55878953462417, 455.80044950590116 207.30304451006722, 505.2814668268612 150.3816454268792 M431.41308731266906 259.74554489991044 C461.007858079626 225.70065559065532, 490.60262884658283 191.6557662814002, 505.54775758859637 174.46336233473718 M431.41308731266906 259.74554489991044 C458.0114678864795 229.14760820455783, 484.60984846029004 198.5496715092052, 505.54775758859637 174.46336233473718 M452.6732670021005 259.67655524063974 C469.14801185936426 240.72452923981672, 485.62275671662803 221.77250323899372, 505.1579893213411 199.299788822818 M452.6732670021005 259.67655524063974 C469.8193736582554 239.9522158365573, 486.96548031441034 220.2278764324748, 505.1579893213411 199.299788822818 M473.93344669153197 259.6075655813691 C484.1466726803406 247.8585930680351, 494.35989866914923 236.1096205547011, 505.4242800830763 223.38150573067603 M473.93344669153197 259.6075655813691 C486.31836511623175 245.3603466995851, 498.70328354093147 231.11312781780111, 505.4242800830763 223.38150573067603 M495.1936263809634 259.53857592209835 C498.3106659154276 255.95283211759184, 501.4277054498918 252.36708831308536, 505.69057084481153 247.463222638534 M495.1936263809634 259.53857592209835 C498.5993004977057 255.62079601290768, 502.00497461444803 251.703016103717, 505.69057084481153 247.463222638534" stroke="#82c91e" stroke-width="2" fill="none"></path><path d="M0 0 C175.10880929263246 0, 350.2176185852649 0, 500.8409317270103 0 M0 0 C176.63695804674757 0, 353.27391609349513 0, 500.8409317270103 0 M500.8409317270103 0 C500.8409317270103 90.03815266744837, 500.8409317270103 180.07630533489674, 500.8409317270103 253.17167774270962 M500.8409317270103 0 C500.8409317270103 80.94014964688684, 500.8409317270103 161.88029929377367, 500.8409317270103 253.17167774270962 M500.8409317270103 253.17167774270962 C363.3077960165307 253.17167774270962, 225.77466030605115 253.17167774270962, 0 253.17167774270962 M500.8409317270103 253.17167774270962 C391.6031600964866 253.17167774270962, 282.36538846596284 253.17167774270962, 0 253.17167774270962 M0 253.17167774270962 C0 153.55121588429415, 0 53.930754025878656, 0 0 M0 253.17167774270962 C0 170.22673059490455, 0 87.28178344709946, 0 0" stroke="#000000" stroke-width="4" fill="none"></path></g><g transform="translate(2141.6629013570673 383.35135120776613) rotate(0 247.69277544694523 57.370493214398266)"><path d="M0 0 C0 0, 0 0, 0 0 M0 0 C0 0, 0 0, 0 0 M0.26629076173522215 24.081716907858013 C8.642850598638663 14.44558711028792, 17.019410435542106 4.809457312717829, 21.260179689431453 -0.06898965927069156 M0.26629076173522215 24.081716907858013 C7.980963649078211 15.207000946214151, 15.6956365364212 6.33228498457029, 21.260179689431453 -0.06898965927069156 M-0.12347750552006431 48.9181433959388 C11.102475691945738 36.00416149663246, 22.32842888941154 23.090179597326124, 42.520359378862906 -0.13797931854138312 M-0.12347750552006431 48.9181433959388 C8.410436552029259 39.1009982741948, 16.94435060957858 29.283853152450803, 42.520359378862906 -0.13797931854138312 M0.14281325621515606 72.99986030379681 C21.757141119537053 48.13542038651451, 43.37146898285895 23.270980469232207, 63.78053906829436 -0.20696897781207468 M0.14281325621515606 72.99986030379681 C16.590990430323433 54.0783969263289, 33.03916760443171 35.15693354886099, 63.78053906829436 -0.20696897781207468 M-0.24695501104012862 97.8362867918776 C19.701716929223227 74.88796482578239, 39.650388869486584 51.93964285968719, 85.04071875772581 -0.27595863708276624 M-0.24695501104012862 97.8362867918776 C33.317088289066014 59.225271760837494, 66.88113158917216 20.61425672979739, 85.04071875772581 -0.27595863708276624 M3.2996308956476312 118.14445579862175 C37.977423716486854 78.25221850537277, 72.65521653732608 38.359981212123785, 106.30089844715727 -0.3449482963534578 M3.2996308956476312 118.14445579862175 C44.45238565659673 70.80362685151191, 85.60514041754584 23.462797904402066, 106.30089844715727 -0.3449482963534578 M24.559810585079077 118.07546613935105 C57.03901438955756 80.71241619098659, 89.51821819403604 43.349366242622125, 126.9050191075982 0.34077162459862365 M24.559810585079077 118.07546613935105 C47.082613876649376 92.16594479067521, 69.60541716821967 66.25642344199939, 126.9050191075982 0.34077162459862365 M45.81999027451054 118.00647648008038 C68.10734508410223 92.36780762660088, 90.39469989369391 66.72913877312138, 148.16519879702966 0.2717819653279321 M45.81999027451054 118.00647648008038 C82.09161525504541 76.28074502390469, 118.36324023558029 34.55501356772899, 148.16519879702966 0.2717819653279321 M67.08016996394198 117.93748682080968 C102.48903459477461 77.20424761393441, 137.89789922560723 36.471008407059145, 169.4253784864611 0.20279230605723342 M67.08016996394198 117.93748682080968 C94.07241765429205 86.8864578379467, 121.06466534464212 55.835428855083705, 169.4253784864611 0.20279230605723342 M88.34034965337345 117.86849716153897 C126.20664806338759 74.30830377225556, 164.07294647340171 30.748110382972158, 190.6855581758926 0.13380264678653475 M88.34034965337345 117.86849716153897 C126.9671212545444 73.43347943861022, 165.59389285571535 28.998461715681472, 190.6855581758926 0.13380264678653475 M109.6005293428049 117.79950750226828 C131.24884943463528 92.89596399921881, 152.89716952646563 67.99242049616933, 211.94573786532402 0.0648129875158503 M109.6005293428049 117.79950750226828 C140.22306130926054 82.57231417894226, 170.84559327571617 47.34512085561623, 211.94573786532402 0.0648129875158503 M130.86070903223637 117.7305178429976 C165.6343064595832 77.72806995715604, 200.40790388693 37.725622071314476, 233.2059175547555 -0.00417667175483416 M130.86070903223637 117.7305178429976 C152.71575762999424 92.58916039785711, 174.57080622775214 67.44780295271661, 233.2059175547555 -0.00417667175483416 M152.1208887216678 117.6615281837269 C179.25422035862366 86.44820068592257, 206.38755199557949 55.23487318811824, 254.46609724418693 -0.07316633102553283 M152.1208887216678 117.6615281837269 C181.98144702614903 83.31088528827075, 211.84200533063023 48.96024239281459, 254.46609724418693 -0.07316633102553283 M173.38106841109928 117.5925385244562 C197.21952275649272 90.1695337685352, 221.05797710188614 62.7465290126142, 275.7262769336184 -0.1421559902962315 M173.38106841109928 117.5925385244562 C203.91865744923643 82.4630608622846, 234.4562464873736 47.333583200113, 275.7262769336184 -0.1421559902962315 M194.6412481005307 117.52354886518553 C227.110530458737 80.17191223516653, 259.5798128169433 42.82027560514754, 296.98645662304983 -0.21114564956690174 M194.6412481005307 117.52354886518553 C235.30403236415688 70.74636649866635, 275.96681662778303 23.969184132147163, 296.98645662304983 -0.21114564956690174 M215.24536876097167 118.20926878613761 C247.65312685859192 80.92840772177445, 280.06088495621213 43.64754665741128, 318.2466363124813 -0.2801353088376004 M215.24536876097167 118.20926878613761 C252.13472651760407 75.77291706023442, 289.02408427423643 33.33656533433124, 318.2466363124813 -0.2801353088376004 M236.50554845040313 118.14027912686691 C260.999865311081 89.96279085388218, 285.49418217175884 61.785302580897465, 339.50681600191274 -0.34912496810829907 M236.50554845040313 118.14027912686691 C273.8313903303828 75.2018098552114, 311.1572322103625 32.26334058355589, 339.50681600191274 -0.34912496810829907 M257.76572813983455 118.07128946759622 C279.20355118204475 93.40989512024302, 300.6413742242549 68.74850077288984, 360.11093666235365 0.33659495284376817 M257.76572813983455 118.07128946759622 C279.22622600117836 93.38381072467224, 300.6867238625222 68.69633198174827, 360.11093666235365 0.33659495284376817 M279.02590782926603 118.00229980832552 C315.46325871546753 76.08592250601286, 351.90060960166903 34.16954520370021, 381.3711163517852 0.2676052935730695 M279.02590782926603 118.00229980832552 C312.19989123482185 79.83999735690007, 345.37387464037766 41.677694905474624, 381.3711163517852 0.2676052935730695 M300.28608751869746 117.93331014905485 C331.1279568261484 82.45379807812397, 361.9698261335993 46.974286007193086, 402.6312960412166 0.19861563430239926 M300.28608751869746 117.93331014905485 C337.179183987799 75.49265752644351, 374.07228045690044 33.052004903832156, 402.6312960412166 0.19861563430239926 M321.54626720812894 117.86432048978415 C348.2102358651925 87.190933335567, 374.8742045222561 56.517546181349836, 423.89147573064804 0.1296259750317006 M321.54626720812894 117.86432048978415 C343.0756655608713 93.0975807983133, 364.6050639136136 68.33084110684246, 423.89147573064804 0.1296259750317006 M342.80644689756036 117.79533083051345 C376.9489893439072 78.5188286580337, 411.09153179025407 39.242326485553946, 445.1516554200795 0.060636315761001924 M342.80644689756036 117.79533083051345 C364.1566156410495 93.23477121916612, 385.50678438453855 68.67421160781879, 445.1516554200795 0.060636315761001924 M364.06662658699184 117.72634117124278 C404.9352355282848 70.71238459810931, 445.8038444695777 23.698428024975854, 466.411835109511 -0.00835334350966832 M364.06662658699184 117.72634117124278 C398.8085230368439 77.76036108838923, 433.55041948669594 37.7943810055357, 466.411835109511 -0.00835334350966832 M385.3268062764233 117.65735151197208 C406.7069807379882 93.06227427051437, 428.0871551995531 68.46719702905666, 487.6720147989424 -0.07734300278036699 M385.3268062764233 117.65735151197208 C410.1767432315302 89.07076911738324, 435.0266801866371 60.48418672279439, 487.6720147989424 -0.07734300278036699 M406.58698596585475 117.58836185270138 C433.56833041542035 86.54987561357319, 460.5496748649859 55.511389374444995, 503.0276632274593 6.646053559953884 M406.58698596585475 117.58836185270138 C427.8486310843337 93.1296370228584, 449.11027620281266 68.67091219301543, 503.0276632274593 6.646053559953884 M427.8471656552862 117.51937219343071 C457.21967567388526 83.73016462725172, 486.59218569248435 49.94095706107275, 503.2939539891945 30.727770467811922 M427.8471656552862 117.51937219343071 C446.13621356600873 96.48022927878404, 464.42526147673135 75.44108636413736, 503.2939539891945 30.727770467811922 M448.4512863157272 118.20509211438275 C463.0788858390683 101.37796374925009, 477.7064853624093 84.55083538411742, 502.90418572193926 55.56419695589267 M448.4512863157272 118.20509211438275 C467.675079906195 96.09064730097086, 486.89887349666276 73.97620248755896, 502.90418572193926 55.56419695589267 M469.71146600515857 118.13610245511208 C479.62444865697455 106.73252039113306, 489.5374313087905 95.32893832715405, 503.17047648367446 79.6459138637507 M469.71146600515857 118.13610245511208 C478.9928112817536 107.45913607240726, 488.2741565583485 96.78216968970246, 503.17047648367446 79.6459138637507 M490.97164569459005 118.06711279584141 C495.60098032191087 112.74167249411728, 500.2303149492317 107.41623219239315, 502.78070821641916 104.48234035183151 M490.97164569459005 118.06711279584141 C493.65769471621303 114.97716686111941, 496.343743737836 111.88722092639743, 502.78070821641916 104.48234035183151" stroke="#82c91e" stroke-width="2" fill="none"></path><path d="M0 0 C195.67891924247544 0, 391.3578384849509 0, 495.3855508938898 0 M0 0 C117.68568144258549 0, 235.37136288517098 0, 495.3855508938898 0 M495.3855508938898 0 C495.3855508938898 42.79621133673584, 495.3855508938898 85.59242267347167, 495.3855508938898 114.74098642879737 M495.3855508938898 0 C495.3855508938898 38.31874447951386, 495.3855508938898 76.63748895902772, 495.3855508938898 114.74098642879737 M495.3855508938898 114.74098642879737 C382.5679325999102 114.74098642879737, 269.7503143059306 114.74098642879737, 0 114.74098642879737 M495.3855508938898 114.74098642879737 C332.1046412393965 114.74098642879737, 168.82373158490321 114.74098642879737, 0 114.74098642879737 M0 114.74098642879737 C0 86.46613542711637, 0 58.19128442543537, 0 0 M0 114.74098642879737 C0 85.6587184097487, 0 56.57645039070002, 0 0" stroke="#000000" stroke-width="4" fill="none"></path></g><g transform="translate(2259.71949372983 403.88739043931855) rotate(0 124.4274593078735 36.15122128539588)"><text x="0" y="58.30244257079117" font-family="Cascadia, Segoe UI Emoji" font-size="60.53227750112744px" fill="#000000" text-anchor="start" style="white-space: pre;" direction="ltr">Account</text></g><g transform="translate(2164.4201851897305 526.24162188017) rotate(0 189.45480973228496 35.11446904520835)"><text x="0" y="56.22893809041611" font-family="Cascadia, Segoe UI Emoji" font-size="58.79632026174373px" fill="#000000" text-anchor="start" style="white-space: pre;" direction="ltr">+ Unmarshal</text></g><g transform="translate(3006.126808508081 362.7392578125) rotate(0 281.767578125 137.8076171875)"><path d="M0 0 L563.53515625 0 L563.53515625 275.615234375 L0 275.615234375" stroke="none" stroke-width="0" fill="#82c91e"></path><path d="M0 0 C198.18149050860302 0, 396.36298101720604 0, 563.53515625 0 M0 0 C130.9804350017257 0, 261.9608700034514 0, 563.53515625 0 M563.53515625 0 C563.53515625 59.653651705821176, 563.53515625 119.30730341164235, 563.53515625 275.615234375 M563.53515625 0 C563.53515625 105.71035764957742, 563.53515625 211.42071529915484, 563.53515625 275.615234375 M563.53515625 275.615234375 C369.3167814272492 275.615234375, 175.0984066044984 275.615234375, 0 275.615234375 M563.53515625 275.615234375 C357.88862802058793 275.615234375, 152.2420997911758 275.615234375, 0 275.615234375 M0 275.615234375 C0 217.3149860343019, 0 159.01473769360382, 0 0 M0 275.615234375 C0 194.15336600483897, 0 112.69149763467794, 0 0" stroke="#000000" stroke-width="4" fill="none"></path></g><g transform="translate(3161.9532554502075 469.9962396521041) rotate(0 124.4274593078735 36.15122128539588)"><text x="0" y="58.30244257079117" font-family="Cascadia, Segoe UI Emoji" font-size="60.53227750112744px" fill="#fff" text-anchor="start" style="white-space: pre;" direction="ltr">Account</text></g><g><g transform="translate(1715.7810517127855 466.4741984707798) rotate(0 197.02582342375808 14.673984868237312)"><path d="M0 0 C65.67527447458603 4.891328289412438, 328.3763723729301 24.456641447062186, 394.05164684751617 29.347969736474624 M0 0 C65.67527447458603 4.891328289412438, 328.3763723729301 24.456641447062186, 394.05164684751617 29.347969736474624" stroke="#000000" stroke-width="4" fill="none"></path></g><g transform="translate(1715.7810517127855 466.4741984707798) rotate(0 197.02582342375808 14.673984868237312)"><path d="M365.1766568756655 37.486455721319864 C372.71139428641555 35.362771700073154, 380.2461316971656 33.23908767882644, 394.05164684751617 29.347969736474624 M365.1766568756655 37.486455721319864 C373.2252837188512 35.21793071665758, 381.2739105620369 32.9494057119953, 394.05164684751617 29.347969736474624" stroke="#000000" stroke-width="4" fill="none"></path></g><g transform="translate(1715.7810517127855 466.4741984707798) rotate(0 197.02582342375808 14.673984868237312)"><path d="M366.7008032817977 17.021925916838313 C373.83782478141006 20.238325423293464, 380.9748462810225 23.454724929748615, 394.05164684751617 29.347969736474624 M366.7008032817977 17.021925916838313 C374.3245889150193 20.457692552730567, 381.94837454824096 23.89345918862282, 394.05164684751617 29.347969736474624" stroke="#000000" stroke-width="4" fill="none"></path></g></g><g><g transform="translate(1727.7262425843837 134.0285737860395) rotate(0 196.7443329116768 147.62025563963107)"><path d="M0 0 C65.58144430389227 49.206751879877025, 327.9072215194613 246.0337593993851, 393.4886658233536 295.24051127926214 M0 0 C65.58144430389227 49.206751879877025, 327.9072215194613 246.0337593993851, 393.4886658233536 295.24051127926214" stroke="#000000" stroke-width="4" fill="none"></path></g><g transform="translate(1727.7262425843837 134.0285737860395) rotate(0 196.7443329116768 147.62025563963107)"><path d="M364.78143668096004 286.52873792556943 C371.6754872016534 288.62087316186415, 378.5695377223468 290.7130083981589, 393.4886658233536 295.24051127926214 M364.78143668096004 286.52873792556943 C372.46660572822094 288.8609536400314, 380.1517747754818 291.1931693544934, 393.4886658233536 295.24051127926214" stroke="#000000" stroke-width="4" fill="none"></path></g><g transform="translate(1727.7262425843837 134.0285737860395) rotate(0 196.7443329116768 147.62025563963107)"><path d="M377.0974724316308 270.11425451079094 C381.03382291591066 276.1483333380627, 384.97017340019045 282.18241216533437, 393.4886658233536 295.24051127926214 M377.0974724316308 270.11425451079094 C381.4855341103426 276.8407668409351, 385.8735957890544 283.56727917107924, 393.4886658233536 295.24051127926214" stroke="#000000" stroke-width="4" fill="none"></path></g></g><g><g transform="translate(1713.576842282073 782.523782062759) rotate(0 197.18117077712213 -74.13369306141976)"><path d="M0 0 C65.72705692570737 -24.711231020473253, 328.6352846285369 -123.55615510236628, 394.36234155424427 -148.26738612283953 M0 0 C65.72705692570737 -24.711231020473253, 328.6352846285369 -123.55615510236628, 394.36234155424427 -148.26738612283953" stroke="#000000" stroke-width="4" fill="none"></path></g><g transform="translate(1713.576842282073 782.523782062759) rotate(0 197.18117077712213 -74.13369306141976)"><path d="M371.58577813281516 -128.74232123921837 C380.53304048883615 -136.41230528377048, 389.48030284485714 -144.08228932832262, 394.36234155424427 -148.26738612283953 M371.58577813281516 -128.74232123921837 C379.5645284131461 -135.58205443474964, 387.543278693477 -142.4217876302809, 394.36234155424427 -148.26738612283953" stroke="#000000" stroke-width="4" fill="none"></path></g><g transform="translate(1713.576842282073 782.523782062759) rotate(0 197.18117077712213 -74.13369306141976)"><path d="M364.3640119263941 -147.95081142573832 C376.14818324568313 -148.07517069881362, 387.9323545649722 -148.19952997188892, 394.36234155424427 -148.26738612283953 M364.3640119263941 -147.95081142573832 C374.8725849933248 -148.06170921161174, 385.3811580602555 -148.17260699748516, 394.36234155424427 -148.26738612283953" stroke="#000000" stroke-width="4" fill="none"></path></g></g><g><g transform="translate(2657.210792883081 538.9306640625) rotate(0 169.9072265625 -1.15234375)"><path d="M0 0 C56.6357421875 -0.3841145833333333, 283.1787109375 -1.9205729166666667, 339.814453125 -2.3046875" stroke="#000000" stroke-width="4.5" fill="none" stroke-dasharray="12 8"></path></g><g transform="translate(2657.210792883081 538.9306640625) rotate(0 169.9072265625 -1.15234375)"><path d="M311.69391064805905 8.1468717522149 C318.5543786982816 5.59704226782195, 325.4148467485042 3.047212783429, 339.814453125 -2.3046875" stroke="#000000" stroke-width="4.5" fill="none"></path></g><g transform="translate(2657.210792883081 538.9306640625) rotate(0 169.9072265625 -1.15234375)"><path d="M311.5547350338197 -12.373864894753723 C318.4491572602692 -9.917323742840429, 325.34357948671874 -7.460782590927136, 339.814453125 -2.3046875" stroke="#000000" stroke-width="4.5" fill="none"></path></g></g><g transform="translate(863.1620423684762 62.18118652153498) rotate(0 108.28650115995151 31.461618580256072)"><text x="0" y="50.92323716051221" font-family="Cascadia, Segoe UI Emoji" font-size="52.67991948321951px" fill="#000" text-anchor="start" style="white-space: pre;" direction="ltr">Marshal</text></g><g transform="translate(853.879035723432 389.20710596103527) rotate(0 108.28650115995151 31.461618580256072)"><text x="0" y="50.92323716051221" font-family="Cascadia, Segoe UI Emoji" font-size="52.67991948321951px" fill="#000" text-anchor="start" style="white-space: pre;" direction="ltr">Marshal</text></g><g transform="translate(852.7920928000713 775.3544931296965) rotate(0 108.28650115995151 31.461618580256072)"><text x="0" y="50.92323716051221" font-family="Cascadia, Segoe UI Emoji" font-size="52.67991948321951px" fill="#000" text-anchor="start" style="white-space: pre;" direction="ltr">Marshal</text></g></svg>